# xmcd
#
# Track frame offsets:
#	150
#	12749
#	25723
#	34648
#	44064
#	51493
#	59598
#	68398
#	80099
#	93393
#	103861
#	116160
#	128436
#	139745
#	150496
#	160689
#
# Disc length: 2276 seconds
#
# Revision: 0
# Processed by: cddbd v1.5.1PL0 Copyright (c) Steve Scherf et al.
# Submitted via: dBpowerAMP V4.0
#
DISCID=d708e210
DTITLE=Jim Reeves - Everywhere You Go
DYEAR=2004
DGENRE=Country
TTITLE0=Bimbo
TTITLE1=Four Walls
TTITLE2=I'd Like To Be
TTITLE3=My Mary
TTITLE4=Blue Boy
TTITLE5=Waiting For A Train
TTITLE6=According To My Heart
TTITLE7=I Missed Me
TTITLE8=Danny Boy
TTITLE9=Peace In The Valley
TTITLE10=Let Me Love You Just A Little
TTITLE11=A Letter To My Heart
TTITLE12=Anna Marie
TTITLE13=Then I'll Stop Loving You
TTITLE14=Partners
TTITLE15=Stand At Your Window
EXTD=
EXTT0=
EXTT1=
EXTT2=
EXTT3=
EXTT4=
EXTT5=
EXTT6=
EXTT7=
EXTT8=
EXTT9=
EXTT10=
EXTT11=
EXTT12=
EXTT13=
EXTT14=
EXTT15=
PLAYORDER=
